<svg xmlns="http://www.w3.org/2000/svg" viewBox="0 0 1200 675" role="img" aria-labelledby="title desc">
  <title id="title">Cat preventive care illustration</title><desc id="desc">A stylized cat silhouette with a protective shield.</desc>
  <rect width="1200" height="675" fill="#DDE9E3"/><circle cx="950" cy="80" r="280" fill="#CDA85F" opacity=".22"/><circle cx="180" cy="650" r="310" fill="#123A30" opacity=".1"/>
  <path d="M475 242l-70-94-19 130c-50 42-76 105-69 170 11 109 106 190 216 179 109-11 190-106 179-216-6-63-41-118-92-151l-30-126-59 103c-19-2-38 0-56 5z" fill="#123A30"/>
  <path d="M805 270l113 43v91c0 88-48 153-113 188-65-35-113-100-113-188v-91z" fill="#CDA85F"/><path d="M758 418l31 31 65-73" fill="none" stroke="#fff" stroke-width="22" stroke-linecap="round" stroke-linejoin="round"/>
</svg>
